HIERARCHY
ROOT Hips
{
	OFFSET 0.00 0.00 0.00
	CHANNELS 6 Xposition Yposition Zposition Xrotation Yrotation Zrotation
	JOINT Spine
	{
		OFFSET 0.00000 1.15266 1.72900
		CHANNELS 3 Xrotation Yrotation Zrotation
		JOINT Spine1
		{
			OFFSET 0.00000 0.40032 2.27031
			CHANNELS 3 Xrotation Yrotation Zrotation
			JOINT Spine2
			{
				OFFSET 0.00000 0.20092 2.29656
				CHANNELS 3 Xrotation Yrotation Zrotation
				JOINT Spine3
				{
					OFFSET 0.00000 0.00000 2.30533
					CHANNELS 3 Xrotation Yrotation Zrotation
					JOINT Neck
					{
						OFFSET 0.00000 -0.86449 6.05149
						CHANNELS 3 Xrotation Yrotation Zrotation
						JOINT Head
						{
							OFFSET 0.00000 -0.55043 3.12167
							CHANNELS 3 Xrotation Yrotation Zrotation
							End Site
							{
								OFFSET 0.00000 0.00000 3.73175
							}
						}
					}
					JOINT RightShoulder
					{
						OFFSET -0.78828 -1.31380 4.25672
						CHANNELS 3 Xrotation Yrotation Zrotation
						JOINT RightArm
						{
							OFFSET -3.91513 0.00000 0.00000
							CHANNELS 3 Xrotation Yrotation Zrotation
							JOINT RightForeArm
							{
								OFFSET -6.91491 0.00000 0.00000
								CHANNELS 3 Xrotation Yrotation Zrotation
								JOINT RightHand
								{
									OFFSET -6.09622 0.00000 0.00000
									CHANNELS 3 Xrotation Yrotation Zrotation
									JOINT RightHandEnd
									{
										OFFSET -1.74995 0.00000 0.00000
										CHANNELS 3 Xrotation Yrotation Zrotation
										End Site
										{
											OFFSET -1.74995 0.00000 0.00000
										}
									}
									JOINT RightHandThumb1
									{
										OFFSET -0.69998 -1.16663 -0.46665
										CHANNELS 3 Yrotation Xrotation Zrotation
										End Site
										{
											OFFSET -1.69032 -0.45292 0.00000
										}
									}
								}
							}
						}
					}
					JOINT LeftShoulder
					{
						OFFSET 0.78828 -1.31380 4.25672
						CHANNELS 3 Xrotation Yrotation Zrotation
						JOINT LeftArm
						{
							OFFSET 3.91513 0.00000 0.00000
							CHANNELS 3 Xrotation Yrotation Zrotation
							JOINT LeftForeArm
							{
								OFFSET 6.91491 0.00000 0.00000
								CHANNELS 3 Xrotation Yrotation Zrotation
								JOINT LeftHand
								{
									OFFSET 6.09622 0.00000 0.00000
									CHANNELS 3 Xrotation Yrotation Zrotation
									JOINT LeftHandEnd
									{
										OFFSET 1.74995 0.00000 0.00000
										CHANNELS 3 Xrotation Yrotation Zrotation
										End Site
										{
											OFFSET 1.74995 0.00000 0.00000
										}
									}
									JOINT LeftHandThumb1
									{
										OFFSET 0.69998 -1.16663 -0.46665
										CHANNELS 3 Yrotation Xrotation Zrotation
										End Site
										{
											OFFSET 1.69032 -0.45292 0.00000
										}
									}
								}
							}
						}
					}
				}
			}
		}
	}
	JOINT RightUpLeg
	{
		OFFSET -2.33857 0.00000 -0.68318
		CHANNELS 3 Xrotation Yrotation Zrotation
		JOINT RightLeg
		{
			OFFSET 0.00000 0.00000 -10.74496
			CHANNELS 3 Xrotation Yrotation Zrotation
			JOINT RightFoot
			{
				OFFSET 0.00000 0.00000 -10.93085
				CHANNELS 3 Xrotation Yrotation Zrotation
				JOINT RightToeBase
				{
					OFFSET 0.00000 -4.08727 -1.48765
					CHANNELS 3 Xrotation Yrotation Zrotation
					End Site
					{
						OFFSET 0.00000 -1.89187 -0.00000
					}
				}
			}
		}
	}
	JOINT LeftUpLeg
	{
		OFFSET 2.33857 0.00000 -0.68318
		CHANNELS 3 Xrotation Yrotation Zrotation
		JOINT LeftLeg
		{
			OFFSET 0.00000 0.00000 -10.74496
			CHANNELS 3 Xrotation Yrotation Zrotation
			JOINT LeftFoot
			{
				OFFSET 0.00000 0.00000 -10.93085
				CHANNELS 3 Xrotation Yrotation Zrotation
				JOINT LeftToeBase
				{
					OFFSET 0.00000 -4.08727 -1.48765
					CHANNELS 3 Xrotation Yrotation Zrotation
					End Site
					{
						OFFSET 0.00000 -1.89187 -0.00000
					}
				}
			}
		}
	}
}
MOTION
Frames: 16
Frame Time: 0.008342
 -0.4455 13.0468 24.6005 -3.6017 -2.9758 174.7539 7.3489 -1.2607 -0.1388 2.3573 -0.5531 0.0660 1.5847 0.3423 5.1808 -6.6055 0.1046 0.8894 -25.2451 1.7401 -0.3133 3.6324 -0.6376 -4.4685 -20.4128 -2.0375 23.8211 -89.5351 -78.8659 -35.9788 -0.0000 0.0001 72.1978 -7.3881 34.4633 6.3221 0.0000 -0.0000 0.0000 -0.0000 0.0000 -0.0000 -13.5020 -0.8506 -23.1408 -33.3600 76.5434 -38.6978 -0.0000 -0.0000 -60.7598 19.6966 -35.6338 1.3521 0.0000 -0.0000 0.0000 0.0000 0.0000 0.0000 -10.5383 0.0006 -5.0253 17.0873 0.0000 0.0000 -9.1356 -1.2544 2.9861 -1.6391 0.0000 -0.0000 -12.6653 -11.7737 -0.1046 20.4534 0.0000 0.0000 -11.6574 9.2667 -8.1127 2.1028 0.0000 0.0000
 -0.4595 13.0380 24.5785 -3.6087 -2.9186 174.3334 7.3781 -1.2607 -0.1387 2.3851 -0.5608 0.0688 1.5491 0.3093 5.2568 -6.5744 0.1174 0.8960 -25.0505 1.7041 -0.2208 3.6869 -0.5650 -4.4667 -20.8057 -1.7421 24.1442 -95.5959 -78.9830 -42.0144 -0.0000 0.0001 73.0032 -5.7394 35.1706 5.9728 -0.0000 -0.0000 0.0000 0.0000 0.0000 -0.0000 -13.8539 -1.4121 -23.3513 -36.1486 77.8426 -35.8948 -0.0000 -0.0001 -61.7589 22.0629 -35.8256 2.3979 -0.0000 -0.0000 -0.0000 0.0000 0.0000 -0.0000 -11.0907 0.0125 -4.3232 18.0104 0.0000 0.0000 -9.4917 -1.3164 2.7099 -1.6577 0.0000 -0.0000 -12.9434 -11.7382 0.0306 21.1780 0.0000 0.0000 -12.0556 9.2084 -7.8837 2.0607 0.0000 0.0000
 -0.4746 13.0314 24.5517 -3.5272 -2.8322 173.9001 7.4705 -1.2196 -0.1361 2.4191 -0.5954 0.0563 1.5189 0.3099 5.3644 -6.5370 0.1278 0.8808 -24.8116 1.6595 -0.1247 3.7584 -0.4949 -4.4581 -21.1686 -1.4523 24.4923 -101.4626 -78.9702 -47.8168 -0.0000 0.0001 73.6700 -4.3297 35.8017 5.6419 -0.0000 -0.0000 -0.0000 -0.0000 -0.0000 0.0000 -14.2075 -2.0049 -23.5940 -39.9684 79.1720 -32.0160 -0.0000 -0.0001 -62.7209 24.3162 -35.9711 3.4805 0.0000 -0.0000 0.0000 0.0000 -0.0000 -0.0000 -11.6353 0.0484 -3.5465 19.0945 0.0000 0.0000 -9.9305 -1.3904 2.3855 -1.6760 0.0000 -0.0000 -13.1603 -11.6629 0.1615 21.9767 0.0000 0.0000 -12.5044 9.1466 -7.6278 2.0258 0.0000 0.0000
 -0.4905 13.0248 24.5192 -3.4046 -2.7233 173.4599 7.5799 -1.1732 -0.1363 2.4517 -0.5779 0.0617 1.5080 0.2738 5.4439 -6.4921 0.1397 0.8814 -24.5407 1.6257 -0.0278 3.8482 -0.4335 -4.4451 -21.5575 -1.1326 24.8769 -107.0997 -78.8137 -53.4180 -0.0000 0.0001 74.2275 -3.1495 36.3301 5.3180 0.0000 -0.0000 0.0000 -0.0000 -0.0000 0.0000 -14.5834 -2.6085 -23.8758 -45.2316 80.4915 -26.6333 -0.0000 -0.0001 -63.6375 26.4037 -36.0318 4.5711 -0.0000 -0.0000 -0.0000 0.0000 0.0000 0.0000 -12.2264 0.0953 -2.7137 20.3412 0.0000 0.0000 -10.4447 -1.4755 2.0213 -1.6936 0.0000 -0.0000 -13.3876 -11.5594 0.2842 22.8770 0.0000 0.0000 -13.0080 9.0839 -7.3570 2.0011 0.0000 0.0000
 -0.5068 13.0194 24.4807 -3.2082 -2.5976 173.0263 7.7327 -1.1013 -0.1430 2.4977 -0.5806 0.0626 1.5039 0.2643 5.5262 -6.4382 0.1529 0.8831 -24.2368 1.5904 0.0605 3.9522 -0.3776 -4.4257 -21.9471 -0.8014 25.2783 -112.2567 -78.5536 -58.5402 -0.0000 0.0001 74.6708 -2.1949 36.7598 5.0129 -0.0000 -0.0000 -0.0000 0.0000 -0.0000 -0.0000 -14.9637 -3.2296 -24.2020 -52.4488 81.7212 -19.2588 -0.0000 -0.0001 -64.4950 28.2668 -35.9992 5.6431 0.0000 0.0000 -0.0000 0.0000 0.0000 0.0000 -12.8099 0.1519 -1.8545 21.7208 0.0000 0.0000 -11.0264 -1.5679 1.6346 -1.7089 0.0000 -0.0000 -13.5868 -11.4279 0.3935 23.8687 0.0000 0.0000 -13.5636 9.0200 -7.0761 1.9899 0.0000 0.0000
 -0.5240 13.0137 24.4354 -2.9731 -2.4439 172.5964 7.8929 -1.0068 -0.1529 2.5537 -0.5775 0.0677 1.5186 0.2658 5.6015 -6.3795 0.1649 0.8840 -23.9105 1.5620 0.1478 4.0673 -0.3299 -4.4053 -22.3242 -0.4425 25.6976 -116.8620 -78.2186 -63.0972 -0.0000 0.0001 75.0140 -1.4541 37.0949 4.7365 0.0000 -0.0000 0.0000 -0.0000 -0.0000 0.0000 -15.3605 -3.8570 -24.5654 -62.2257 82.7744 -9.2764 -0.0000 -0.0001 -65.2943 29.8512 -35.8467 6.6569 0.0000 -0.0000 -0.0000 0.0000 0.0000 -0.0000 -13.4313 0.2262 -0.9819 23.2395 0.0000 0.0000 -11.6737 -1.6664 1.2426 -1.7202 0.0000 -0.0000 -13.8028 -11.2620 0.5016 24.9580 0.0000 0.0000 -14.1661 8.9522 -6.7956 1.9950 0.0000 0.0000
 -0.5404 13.0118 24.3844 -2.5945 -2.3021 172.1923 8.1684 -0.9135 -0.1698 2.6167 -0.5711 0.0667 1.5496 0.2766 5.6733 -6.3125 0.1828 0.8873 -23.5641 1.5372 0.2202 4.1917 -0.2907 -4.3771 -22.6992 -0.0620 26.1174 -120.9124 -77.8369 -67.1070 -0.0000 0.0001 75.2777 -0.9074 37.3264 4.5005 0.0000 -0.0000 -0.0000 -0.0000 0.0000 -0.0000 -15.7340 -4.4942 -24.9535 -74.6988 83.5413 3.4008 -0.0000 -0.0001 -66.0190 31.1031 -35.5806 7.5771 0.0000 -0.0000 0.0000 0.0000 0.0000 0.0000 -13.9229 0.2944 -0.1345 24.8164 0.0000 0.0000 -12.3643 -1.7631 0.8590 -1.7263 0.0000 -0.0000 -13.9023 -11.0891 0.6053 26.1147 0.0000 0.0000 -14.8131 8.8864 -6.5316 2.0153 0.0000 0.0000
 -0.5577 13.0080 24.3261 -2.2128 -2.1276 171.7990 8.4237 -0.7971 -0.1895 2.6865 -0.5602 0.0689 1.6021 0.3024 5.7376 -6.2436 0.2012 0.8855 -23.2136 1.5206 0.2890 4.3198 -0.2592 -4.3479 -23.0510 0.3390 26.5353 -124.3686 -77.4475 -70.5104 -0.0000 0.0001 75.4842 -0.5410 37.4692 4.3171 -0.0000 0.0000 -0.0000 0.0000 0.0000 0.0000 -16.1208 -5.1289 -25.3664 -89.3543 83.9187 18.3061 -0.0000 -0.0001 -66.6986 31.9877 -35.1793 8.3634 0.0000 -0.0000 -0.0000 0.0000 -0.0000 0.0000 -14.4775 0.3860 0.6939 26.5036 0.0000 0.0000 -13.1046 -1.8582 0.4944 -1.7249 0.0000 -0.0000 -14.0592 -10.8836 0.7236 27.3613 0.0000 0.0000 -15.4916 8.8147 -6.2926 2.0522 0.0000 0.0000
 -0.5737 13.0066 24.2620 -1.7224 -1.9795 171.4380 8.7762 -0.7048 -0.2158 2.7636 -0.5329 0.0756 1.6561 0.3290 5.7836 -6.1658 0.2241 0.8814 -22.8549 1.5134 0.3569 4.4475 -0.2382 -4.3209 -23.3667 0.7519 26.9426 -127.3024 -77.0719 -73.3854 -0.0000 0.0001 75.6593 -0.3368 37.5183 4.2049 0.0000 0.0000 -0.0000 0.0000 -0.0000 -0.0000 -16.3881 -5.7051 -25.7390 -103.2780 83.9381 32.3678 -0.0000 -0.0001 -67.2671 32.4788 -34.6989 9.0129 0.0000 -0.0000 -0.0000 -0.0000 0.0000 0.0000 -14.9169 0.4586 1.4702 28.2077 0.0000 0.0000 -13.8657 -1.9435 0.1518 -1.7160 0.0000 -0.0000 -14.1365 -10.6971 0.8586 28.6685 0.0000 0.0000 -16.1997 8.7477 -6.1059 2.1019 0.0000 0.0000
 -0.5894 13.0047 24.1915 -1.1993 -1.8258 171.1007 9.1442 -0.6026 -0.2421 2.8456 -0.5127 0.0802 1.7360 0.3743 5.8186 -6.0895 0.2486 0.8700 -22.5080 1.5122 0.4189 4.5744 -0.2228 -4.2899 -23.6442 1.1779 27.3250 -129.7633 -76.7363 -75.7817 -0.0000 0.0001 75.8276 -0.2816 37.4935 4.1728 0.0000 -0.0000 -0.0000 -0.0000 0.0000 -0.0000 -16.6786 -6.2803 -26.1219 -115.9856 83.6235 45.2871 -0.0000 -0.0001 -67.8331 32.5733 -34.0930 9.4753 -0.0000 0.0000 0.0000 0.0000 0.0000 0.0000 -15.3431 0.5385 2.1955 29.9517 0.0000 0.0000 -14.6503 -2.0188 -0.1579 -1.6978 0.0000 -0.0000 -14.2200 -10.5075 1.0179 30.0324 0.0000 0.0000 -16.9242 8.6804 -5.9687 2.1629 0.0000 0.0000
 -0.6039 13.0024 24.1154 -0.6476 -1.6867 170.7922 9.5374 -0.5123 -0.2696 2.9296 -0.4903 0.0849 1.8292 0.4266 5.8369 -6.0119 0.2780 0.8537 -22.1755 1.5137 0.4814 4.6965 -0.2124 -4.2598 -23.8741 1.5968 27.6668 -131.8028 -76.4637 -77.7601 -0.0000 0.0001 76.0121 -0.3581 37.4003 4.2286 -0.0000 0.0000 0.0000 0.0000 -0.0000 -0.0000 -16.9236 -6.8252 -26.4742 -126.1603 83.1257 55.6738 -0.0000 -0.0001 -68.3763 32.2843 -33.4092 9.7520 -0.0000 -0.0000 -0.0000 -0.0000 -0.0000 -0.0000 -15.7370 0.6062 2.8614 31.6993 0.0000 0.0000 -15.4416 -2.0801 -0.4381 -1.6701 0.0000 -0.0000 -14.3068 -10.3420 1.2064 31.4426 0.0000 0.0000 -17.6582 8.6182 -5.8971 2.2298 0.0000 0.0000
 -0.6168 12.9995 24.0345 -0.0785 -1.5694 170.5138 9.9543 -0.4370 -0.2962 3.0126 -0.4697 0.0879 1.9279 0.4837 5.8367 -5.9307 0.3124 0.8329 -21.8639 1.5153 0.5403 4.8141 -0.2060 -4.2238 -24.0532 1.9906 27.9510 -133.4797 -76.2721 -79.3944 -0.0000 0.0001 76.2323 -0.5506 37.2482 4.3765 0.0000 0.0000 -0.0000 0.0000 -0.0000 -0.0000 -17.1238 -7.3380 -26.7861 -133.9977 82.5595 63.7404 -0.0000 -0.0001 -68.9220 31.6488 -32.6719 9.8448 -0.0000 0.0000 -0.0000 0.0000 0.0000 0.0000 -16.0970 0.6546 3.4647 33.4274 0.0000 0.0000 -16.2288 -2.1254 -0.6906 -1.6343 0.0000 -0.0000 -14.3991 -10.2138 1.4255 32.8830 0.0000 0.0000 -18.3930 8.5644 -5.8959 2.2993 0.0000 0.0000
 -0.6279 12.9958 23.9495 0.4905 -1.4797 170.2641 10.3763 -0.3812 -0.3213 3.0927 -0.4488 0.0907 2.0417 0.5404 5.8162 -5.8512 0.3473 0.8061 -21.5747 1.5183 0.6022 4.9251 -0.2010 -4.1831 -24.1616 2.3549 28.1693 -134.8487 -76.1747 -80.7331 -0.0000 0.0001 76.5026 -0.8457 37.0574 4.6115 0.0000 0.0000 -0.0000 -0.0000 0.0000 -0.0000 -17.2526 -7.8013 -27.0333 -139.9321 82.0336 69.9026 -0.0000 -0.0001 -69.4751 30.7185 -31.9222 9.7716 0.0000 0.0000 0.0000 0.0000 -0.0000 0.0000 -16.4308 0.6774 4.0034 35.1180 0.0000 0.0000 -17.0020 -2.1552 -0.9156 -1.5902 0.0000 -0.0000 -14.5062 -10.1331 1.6705 34.3393 0.0000 0.0000 -19.1220 8.5217 -5.9614 2.3682 0.0000 0.0000
 -0.6367 12.9909 23.8617 1.0368 -1.4252 170.0433 10.7904 -0.3508 -0.3433 3.1658 -0.4307 0.0918 2.1630 0.5940 5.7740 -5.7705 0.3819 0.7758 -21.3110 1.5185 0.6650 5.0303 -0.1965 -4.1332 -24.2003 2.6707 28.3058 -135.9644 -76.1797 -81.8518 -0.0000 0.0001 76.8349 -1.2255 36.8362 4.9248 0.0000 0.0000 -0.0000 0.0000 -0.0000 0.0000 -17.3089 -8.2145 -27.2090 -144.5089 81.6019 74.7233 -0.0000 -0.0001 -70.0577 29.5575 -31.1907 9.5548 -0.0000 -0.0000 -0.0000 0.0000 -0.0000 -0.0000 -16.7511 0.6637 4.4772 36.7527 0.0000 0.0000 -17.7503 -2.1694 -1.1183 -1.5403 0.0000 -0.0000 -14.6444 -10.1137 1.9342 35.7995 0.0000 0.0000 -19.8388 8.4941 -6.0904 2.4330 0.0000 0.0000
 -0.6429 12.9846 23.7719 1.5423 -1.4145 169.8478 11.1771 -0.3487 -0.3590 3.2321 -0.4220 0.0902 2.2969 0.6430 5.7118 -5.6908 0.4150 0.7422 -21.0714 1.5137 0.7294 5.1280 -0.1918 -4.0710 -24.1573 2.9299 28.3503 -136.8732 -76.2950 -82.7981 -0.0000 0.0001 77.2348 -1.6743 36.6025 5.2967 0.0000 0.0000 0.0000 0.0000 -0.0000 0.0000 -17.3086 -8.5762 -27.3144 -148.1341 81.2810 78.6424 -0.0000 -0.0001 -70.6927 28.2380 -30.4980 9.2180 0.0000 0.0000 0.0000 0.0000 -0.0000 -0.0000 -17.0669 0.6012 4.8888 38.3149 0.0000 0.0000 -18.4636 -2.1694 -1.3027 -1.4866 0.0000 -0.0000 -14.8232 -10.1687 2.2089 37.2512 0.0000 0.0000 -20.5389 8.4851 -6.2753 2.4915 0.0000 0.0000
 -0.6480 12.9777 23.6818 2.0115 -1.4107 169.6694 11.5367 -0.3443 -0.3728 3.2876 -0.4100 0.0883 2.4406 0.6788 5.6278 -5.6103 0.4429 0.7069 -20.8537 1.5063 0.7964 5.2196 -0.1857 -3.9924 -24.0257 3.1260 28.2985 -137.6268 -76.5229 -83.6311 -0.0000 0.0001 77.7033 -2.1729 36.3692 5.7085 0.0000 -0.0000 -0.0000 -0.0000 0.0000 -0.0000 -17.1939 -8.8673 -27.3188 -151.0755 81.1378 81.8721 -0.0000 -0.0001 -71.3628 26.8352 -29.8964 8.8045 0.0000 0.0000 0.0000 -0.0000 -0.0000 -0.0000 -17.3823 0.5350 5.2466 39.8086 0.0000 0.0000 -19.1465 -2.1620 -1.4560 -1.4310 0.0000 -0.0000 -15.0192 -10.2477 2.4862 38.6549 0.0000 0.0000 -21.2091 8.4870 -6.4833 2.5439 0.0000 0.0000
